<svg xmlns="http://www.w3.org/2000/svg" xmlns:xlink="http://www.w3.org/1999/xlink" width="24" height="24" viewBox="0 0 24 24">
    <defs>
        <path id="prefix__a" d="M3 6c0-3.314 2.686-6 6-6h3c.552 0 1 .448 1 1v4c0 .552-.448 1-1 1H9v2h3c.65 0 1.128.611.97 1.243l-1 4c-.111.445-.511.757-.97.757H9v7c0 .552-.448 1-1 1H4c-.552 0-1-.448-1-1v-7H1c-.552 0-1-.448-1-1V9c0-.552.448-1 1-1h2V6zm8-4H9C6.79 2 5 3.79 5 6v3c0 .552-.448 1-1 1H2v2h2c.552 0 1 .448 1 1v7h2v-7c0-.552.448-1 1-1h2.22l.5-2H8c-.552 0-1-.448-1-1V6c0-1.105.895-2 2-2h2V2z"/>
    </defs>
    <g fill="none" fill-rule="evenodd" transform="translate(6 1)">
        <mask id="prefix__b" fill="#fff">
            <use xlink:href="#prefix__a"/>
        </mask>
        <use fill="#000" fill-rule="nonzero" xlink:href="#prefix__a"/>
        <g fill="#000" mask="url(#prefix__b)">
            <path d="M0 0H24V24H0z" transform="translate(-6 -1)"/>
        </g>
    </g>
</svg>
