<svg xmlns="http://www.w3.org/2000/svg" xmlns:xlink="http://www.w3.org/1999/xlink" width="24" height="24" viewBox="0 0 24 24">
    <defs>
        <path id="prefix__a" d="M16 0c3.314 0 6 2.686 6 6v10c0 3.314-2.686 6-6 6H6c-3.314 0-6-2.686-6-6V6c0-3.314 2.686-6 6-6h10zm0 2H6C3.79 2 2 3.79 2 6v10c0 2.21 1.79 4 4 4h10c2.21 0 4-1.79 4-4V6c0-2.21-1.79-4-4-4zm-4.223 4.01c2.178.324 3.89 2.035 4.212 4.213.317 2.134-.771 4.23-2.698 5.2-1.927.97-4.258.595-5.783-.93-1.526-1.526-1.9-3.857-.93-5.784.969-1.927 3.065-3.015 5.199-2.698zM8.364 9.609c-.582 1.156-.357 2.555.558 3.47s2.314 1.14 3.47.558c1.156-.581 1.809-1.84 1.619-3.12-.194-1.307-1.22-2.333-2.528-2.527-1.28-.19-2.538.463-3.12 1.619z"/>
    </defs>
    <g fill="none" fill-rule="evenodd" transform="translate(1 1)">
        <mask id="prefix__b" fill="#fff">
            <use xlink:href="#prefix__a"/>
        </mask>
        <use fill="#000" fill-rule="nonzero" xlink:href="#prefix__a"/>
        <g fill="#000" mask="url(#prefix__b)">
            <path d="M0 0H24V24H0z" transform="translate(-1 -1)"/>
        </g>
    </g>
</svg>
