<svg xmlns="http://www.w3.org/2000/svg" xmlns:xlink="http://www.w3.org/1999/xlink" width="24" height="24" viewBox="0 0 24 24">
    <defs>
        <path id="prefix__a" d="M22.426.193c.755-.532 1.766.156 1.548 1.054-.343 1.406-1.03 2.703-1.995 3.774.015.162.022.325.023.49 0 11.859-11.446 17.951-21.486 12.373-.92-.511-.527-1.915.526-1.873 1.686.067 3.356-.268 4.874-.967-2.204-1.359-3.615-3.158-4.308-5.285-.715-2.197-.61-4.506-.014-6.699.18-.663.364-1.163.494-1.456C2.404.894 3.374.8 3.82 1.436c1.672 2.38 4.315 3.866 7.182 4.08-.016-2.284 1.389-4.34 3.525-5.155 1.933-.738 4.095-.32 5.608 1.034.812-.298 1.582-.702 2.29-1.202zM20.15 3.498c-.376.113-.784-.005-1.043-.301-.958-1.102-2.502-1.489-3.866-.968-1.365.52-2.259 1.838-2.239 3.311v1c0 .542-.432.986-.974 1-3.26.085-6.376-1.2-8.622-3.486-.395 1.705-.424 3.463.104 5.086.677 2.08 2.227 3.77 4.898 4.956.717.32.805 1.301.156 1.742-1.12.76-2.346 1.33-3.63 1.696 7.68 2.02 15.068-3.077 15.068-12.02 0-.217-.022-.433-.062-.646-.063-.328.042-.665.28-.9.223-.22.429-.454.618-.7-.227.083-.456.16-.688.23z"/>
    </defs>
    <g fill="none" fill-rule="evenodd" transform="translate(0 2)">
        <mask id="prefix__b" fill="#fff">
            <use xlink:href="#prefix__a"/>
        </mask>
        <use fill="#000" fill-rule="nonzero" xlink:href="#prefix__a"/>
        <g fill="#000" mask="url(#prefix__b)">
            <path d="M0 0H24V24H0z" transform="translate(0 -2)"/>
        </g>
    </g>
</svg>
